<?xml version="1.0" standalone="no"?>
<!DOCTYPE svg PUBLIC "-//W3C//DTD SVG 20010904//EN"
 "http://www.w3.org/TR/2001/REC-SVG-20010904/DTD/svg10.dtd">
<svg version="1.0" xmlns="http://www.w3.org/2000/svg"
 width="540.000000pt" height="540.000000pt" viewBox="0 0 540.000000 540.000000"
 preserveAspectRatio="xMidYMid meet">

<g transform="translate(0.000000,540.000000) scale(0.100000,-0.100000)"
fill="#000000" stroke="none">
<path d="M2492 4876 c-420 -80 -776 -389 -911 -792 l-30 -89 -73 -37 c-146
-74 -281 -205 -363 -352 l-35 -63 -128 -6 c-189 -7 -337 -56 -497 -162 -464
-308 -592 -926 -289 -1398 63 -99 220 -250 322 -311 142 -85 343 -146 478
-146 l44 0 0 170 0 170 -43 0 c-110 0 -281 68 -382 151 -333 273 -324 796 17
1054 176 134 370 169 613 112 60 -14 110 -25 111 -24 1 1 13 53 28 115 15 67
39 139 58 175 69 129 204 227 363 262 41 9 75 20 75 24 0 38 44 231 64 286 71
187 229 360 413 453 226 116 520 114 753 -3 173 -87 297 -220 403 -432 l36
-71 122 39 c152 50 248 59 369 35 255 -51 459 -244 526 -497 15 -59 18 -131
11 -302 l-2 -38 89 -39 c167 -75 283 -181 354 -324 193 -387 -18 -850 -434
-956 -67 -17 -111 -20 -336 -20 l-259 0 51 -67 c29 -38 75 -114 103 -170 l51
-103 156 0 c253 0 414 40 592 146 102 61 259 212 322 311 197 307 218 692 56
1013 -69 136 -205 290 -331 376 l-66 46 -6 72 c-8 89 -47 228 -92 323 -136
289 -414 504 -730 563 -80 15 -220 18 -315 7 l-65 -7 -71 87 c-157 196 -373
334 -623 400 -120 32 -380 41 -499 19z"/>
<path d="M2461 3354 c-29 -8 -85 -31 -124 -51 -71 -38 -192 -143 -186 -161 2
-6 62 -54 132 -107 l128 -96 39 35 c99 89 255 82 346 -16 53 -55 68 -95 68
-173 0 -104 -45 -178 -139 -229 -39 -21 -48 -21 -622 -24 l-583 -3 0 -170 0
-170 598 3 c651 4 626 2 756 64 149 71 261 208 312 381 23 77 23 219 0 298
-60 205 -224 368 -422 420 -73 19 -231 19 -303 -1z"/>
<path d="M1350 1690 l0 -170 268 0 c258 0 269 -1 312 -22 63 -32 90 -77 90
-147 0 -66 -23 -111 -72 -141 -71 -43 -149 -35 -209 21 -24 23 -37 29 -49 22
-8 -5 -72 -42 -142 -83 -71 -41 -128 -78 -128 -82 0 -4 30 -39 66 -78 117
-124 276 -182 433 -160 126 18 210 61 303 156 115 116 165 305 124 462 l-14
53 477 -3 476 -3 67 -33 c129 -63 193 -172 186 -317 -4 -98 -31 -160 -100
-227 -88 -86 -229 -115 -347 -72 -66 23 -148 95 -181 158 l-24 44 -155 -54
c-85 -30 -157 -56 -159 -58 -2 -3 16 -42 39 -88 57 -109 173 -227 276 -281
198 -103 438 -103 636 0 108 56 230 182 284 293 189 390 -9 830 -432 956 -55
17 -134 18 -1042 21 l-983 4 0 -171z"/>
</g>
</svg>
